<?xml version="1.0" encoding="UTF-8"?>
<!DOCTYPE svg PUBLIC "-//W3C//DTD SVG 1.1//EN" "http://www.w3.org/Graphics/SVG/1.1/DTD/svg11.dtd">
<!-- Creator: CorelDRAW X6 -->
<svg xmlns="http://www.w3.org/2000/svg" xml:space="preserve" width="1in" height="0.688119in" version="1.1" style="shape-rendering:geometricPrecision; text-rendering:geometricPrecision; image-rendering:optimizeQuality; fill-rule:evenodd; clip-rule:evenodd"
viewBox="0 0 3279 2255"
 xmlns:xlink="http://www.w3.org/1999/xlink">
 <defs>
  <style type="text/css">
   <![CDATA[
    .str0 {stroke:#848688;stroke-width:94.0704}
    .fil0 {fill:none}
   ]]>
  </style>
 </defs>
 <g id="Layer_x0020_1">
  <metadata id="CorelCorpID_0Corel-Layer"/>
  <g id="_930595608">
   <path class="fil0 str0" d="M516 771c-253,394 -34,345 -167,461 -39,34 -62,62 -63,119 -3,105 47,106 92,151 -13,191 -117,395 -243,527 -22,24 -41,35 -62,58 60,36 155,81 221,113 81,39 170,-66 199,-113 103,-165 47,-412 35,-617 89,-51 103,-198 -17,-260 -1,-120 30,-254 89,-329 72,-91 145,-114 269,-162 202,-79 404,-164 606,-246 66,-26 283,-138 277,15 -3,68 -55,72 -116,96 -131,50 -715,268 -771,301 235,96 500,165 739,253 97,36 88,19 183,-12l1305 -438c56,-19 155,-33 138,-105 -12,-49 -115,-66 -167,-84l-1300 -433c-97,-32 -112,-20 -202,12 -125,43 -250,84 -375,125l-929 314c-359,121 141,196 259,254z"/>
   <path class="fil0 str0" d="M695 1196c114,61 136,200 102,293 -18,52 -41,56 -58,96 57,33 109,74 181,108 66,31 135,57 211,79 180,51 376,53 570,53 273,0 532,-25 749,-135 277,-140 211,-194 211,-680 -89,14 -907,315 -965,324 -38,6 -603,-203 -717,-243 -61,-21 -190,-75 -249,-82 -16,55 -40,118 -35,187z"/>
  </g>
 </g>
</svg>
