<svg style="position: absolute; width: 0; height: 0;" width="0" height="0" version="1.1" xmlns="http://www.w3.org/2000/svg" xmlns:xlink="http://www.w3.org/1999/xlink">
<defs>
<symbol id="icon-CertificateCourses" viewBox="0 0 1199 1024">
	<title>CertificateCourses</title>
	<path class="path1" d="M82.481 946.4c-10.997-49.489-5.499-164.962-5.499-219.949 0-76.982-5.499-615.858 5.499-648.85h1022.764c10.997 38.491 5.499 175.959 5.499 219.949 0 87.98 5.499 610.359 0 648.85h-1028.263zM1182.228 995.888c5.499-16.496 5.499-703.838 5.499-824.81 0-170.461 16.496-170.461-104.476-170.461h-967.777c-43.99 0-98.977-10.997-109.975 27.494-10.997 21.995-5.499 703.838-5.499 824.81 0 175.959-16.496 170.461 104.476 170.461h967.777c43.99 0 98.977 10.997 109.975-27.494z"></path>
	<path class="path2" d="M126.471 127.089h934.785v775.321h-934.785v-775.321zM98.977 924.405h989.772l-5.499-824.81h-984.273v824.81z"></path>
	<path class="path3" d="M203.453 187.575c-38.491 10.997-32.992 54.987-5.499 65.985 16.496 5.499 500.385 5.499 555.372 5.499 38.491 0 203.453 0 225.448-5.499 32.992-5.499 32.992-49.489 5.499-65.985-16.496-5.499-500.385 0-555.372 0-38.491 0-197.954-5.499-225.448 0z"></path>
	<path class="path4" d="M197.954 347.038c-32.992 10.997-27.494 54.987 5.499 65.985 16.496 0 769.823 0 780.82-5.499 27.494-10.997 27.494-54.987-5.499-65.985-16.496 0-302.43 0-335.423 0-54.987 0-428.901-5.499-445.397 5.499z"></path>
	<path class="path5" d="M390.41 764.942c38.491-38.491 38.491 10.997 87.98-16.496 21.995-16.496 38.491-49.489 65.985-54.987-10.997 27.494-32.992 38.491-21.995 71.484h-131.97zM296.932 737.448l10.997 10.997c5.499 5.499 10.997 5.499 16.496 5.499 27.494 0 5.499 0 27.494 10.997-10.997 5.499-38.491 0-49.489 5.499-16.496 10.997-5.499 27.494 16.496 27.494h291.433c27.494 0 27.494-21.995 16.496-27.494s-43.99 0-54.987-5.499c10.997-16.496 49.489-54.987 65.985-60.486 43.99-16.496 10.997-60.486-49.489 0-10.997 10.997-10.997 10.997-21.995 16.496 5.499-16.496 16.496-38.491 5.499-54.987-38.491-38.491-98.977 54.987-126.471 60.486 16.496-38.491 71.484-65.985 43.99-87.98-16.496-10.997-32.992 21.995-54.987 49.489-10.997 10.997-43.99 43.99-65.985 49.489 0-21.995 98.977-131.97 60.486-142.967-21.995-5.499-32.992 27.494-49.489 60.486-16.496 21.995-32.992 54.987-54.987 65.985 5.499-32.992 21.995-49.489 43.99-87.98 10.997-16.496 76.982-126.471 27.494-120.972-32.992 0-76.982 153.965-115.473 197.954-21.995 21.995-38.491 43.99-71.484 60.486-10.997 5.499-38.491 10.997-27.494 27.494 16.496 43.99 109.975-54.987 115.473-60.486z"></path>
	<path class="path6" d="M808.314 594.481l-43.99-5.499v43.99c-10.997 5.499-27.494 10.997-38.491 21.995 27.494 54.987 32.992 5.499 0 71.484l38.491 16.496v43.99h43.99l16.496 32.992c10.997-5.499 21.995-10.997 38.491-16.496l32.992 21.995 21.995-38.491h38.491c0-49.489-10.997-38.491 38.491-60.486l-21.995-38.491c5.499-10.997 10.997-16.496 16.496-32.992l-32.992-21.995v-38.491h-43.99l-16.496-38.491c-10.997 5.499-27.494 16.496-32.992 21.995-10.997 0-27.494-16.496-38.491-21.995l-16.496 38.491z"></path>
	<path class="path7" d="M478.39 616.476c10.997 5.499 32.992 5.499 54.987 5.499 32.992 0 32.992-32.992-5.499-32.992-32.992 0-54.987-5.499-49.489 27.494z"></path>
</symbol>
<symbol id="icon-DiplomaCourses" viewBox="0 0 838 1024">
	<title>DiplomaCourses</title>
	<path class="path1" d="M442.572 11.77c-11.77-11.77-35.31-11.77-47.080 0l-35.31 47.080-58.851-35.31c-11.77-11.77-35.31 0-35.31 23.54l-23.54 70.621h-11.77l-70.621-11.77c-23.54-11.77-35.31 0-35.31 23.54l11.77 70.621-11.77 11.77-70.621 11.77c-23.54 0-23.54 23.54-11.77 47.080l35.31 58.851-11.77 11.77-58.851 35.31c-11.77 11.77-11.77 35.31 0 47.080l58.851 47.080v11.77l-47.080 58.851c-11.77 11.77 0 35.31 23.54 35.31l70.621 23.54v11.77l-11.77 70.621c0 23.54 11.77 35.31 35.31 35.31l70.621-11.77 23.54 82.391c0 11.77 23.54 23.54 35.31 11.77l58.851-35.31h11.77l47.080 58.851c11.77 23.54 23.54 23.54 47.080 0l35.31-47.080h11.77l58.851 35.31c23.54 11.77 35.31 0 47.080-23.54l11.77-58.851 11.77-11.77 70.621 11.77c23.54 11.77 35.31-11.77 35.31-35.31l-11.77-70.621h11.77l70.621-23.54c23.54 0 23.54-23.54 11.77-35.31l-35.31-58.851v-11.77l58.851-47.080c23.54-11.77 23.54-35.31 0-47.080l-47.080-35.31-11.77-11.77 47.080-58.851c11.77-23.54 0-35.31-23.54-47.080l-70.621-11.77v-11.77l11.77-70.621c0-23.54-11.77-35.31-35.31-35.31l-70.621 11.77h-11.77l-11.77-82.391c0-11.77-23.54-23.54-47.080-11.77l-58.851 35.31h-11.77l-35.31-58.851zM419.032 94.161c176.552 0 317.793 153.011 317.793 329.563s-141.241 317.793-317.793 317.793c-176.552 0-329.563-141.241-329.563-317.793s153.011-329.563 329.563-329.563z"></path>
	<path class="path2" d="M407.262 765.057c11.77 0 11.77 23.54 0 35.31l-153.011 211.862c0 11.77-35.31 23.54-35.31 11.77l-11.77-117.701-105.931 35.31c-11.77 0-11.77-23.54 0-47.080l129.471-188.322c58.851 35.31 117.701 58.851 176.552 58.851z"></path>
	<path class="path3" d="M419.032 765.057c-11.77 0-11.77 23.54-11.77 35.31l153.011 211.862c11.77 11.77 35.31 23.54 35.31 11.77l11.77-117.701 105.931 35.31c11.77 0 11.77-23.54 11.77-47.080l-129.471-188.322c-58.851 35.31-117.701 58.851-176.552 58.851z"></path>
</symbol>
<symbol id="icon-EntranceCoching" viewBox="0 0 951 1024">
	<title>EntranceCoching</title>
	<path class="path1" d="M726.162 973.166c-17.701 5.193-606.793 4.754-628.443-0.878-12.142-25.893-5.559-508.050-5.559-604.672 0-44.544-5.12-168.96 3.218-202.24 23.479-11.849 45.787-3.218 74.533-6.217 30.427-3.218 29.403-37.449 3.218-41.691-51.931-8.485-106.789 0.146-119.954 41.545-7.826 24.722-3.365 578.56-3.365 653.605 0 32.037-3.95 136.046 2.56 160.037 13.97 51.566 63.927 45.129 121.125 45.129h487.643c151.771 0 117.321-22.967 117.979-293.449 0.073-21.431 6.217-67.584-28.233-55.954-20.187 6.802-14.19 42.203-14.19 66.487v162.45c0 24.576 6.437 61.147-10.533 75.849z"></path>
	<path class="path2" d="M861.33 342.967c-6.656 13.751-27.721 42.642-37.522 56.686-13.312 19.017-26.258 38.107-38.619 56.759-55.077 83.31-144.75 204.288-193.609 283.063-12.361 19.822-30.281 32.841-53.029 43.666 3.73-29.696 7.68-45.129 22.967-66.414l224.11-326.802c22.601-32.841 31.598-38.181 24.576-62.391-19.968-10.533-27.282-8.485-39.57 8.558l-170.496 249.563c-17.701 25.527-31.744 46.958-48.713 71.387-13.385 19.31-37.888 49.957-44.032 75.995-4.681 20.187-22.162 82.066-22.455 97.573-0.293 17.042 14.263 27.867 30.574 20.553 7.826-3.511 27.867-18.725 35.84-24.576 67.291-48.859 60.709-38.107 115.493-124.709 35.84-56.686 240.201-345.893 243.639-357.303 9.947-32.914-44.178-39.717-53.979-60.562 19.822 4.315 62.318 55.515 80.091 23.259 13.751-25.015-41.106-51.493-56.759-63.049-34.011-25.015-39.205-16.53-67.73 30.793-20.553 34.085 11.922 38.034 49.225 67.95z"></path>
	<path class="path3" d="M281.088 104.448c19.895-1.097 76.8 4.535 90.331-5.047 9.874-7.022 7.899-23.552 14.482-35.035 5.486-9.582 18.213-16.603 31.378-16.238 40.448 1.17 26.697 42.423 44.325 52.809 11.849 6.949 69.12 3.072 88.503 3.072l1.39 98.889c-53.979 0-230.693 2.487-271.433-0.951l1.024-97.499zM340.699 61.659c-123.611 0-104.082 5.632-104.448 126.025-0.219 74.386 35.621 57.563 173.934 57.563 37.669 0 75.41-0.073 113.079 0 46.299 0.146 67.73-1.243 67.95-50.469 0.073-21.723 2.633-95.525-3.95-110.153-19.456-43.154-83.675-7.68-100.059-30.427-2.048-2.926-4.169-7.973-6.217-11.63-30.793-55.369-124.562-46.738-140.288 19.090z"></path>
	<path class="path4" d="M227.913 786.359l58.002 0.293v57.051l-13.531 0.731-44.178-0.146-0.293-57.929zM185.49 886.711l142.775-0.073v-141.678l-13.531-1.097-129.317 0.146v142.702z"></path>
	<path class="path5" d="M228.133 364.837l58.661 0.219-0.439 59.685-59.392-1.682 1.17-58.222zM188.855 464.165h138.313l-0.293-137.728h-138.386l0.366 137.728z"></path>
	<path class="path6" d="M420.791 373.979h190.757c39.497 0 48.055-42.35-3.511-42.35h-187.246c-44.69 0.073-42.203 42.35 0 42.35z"></path>
	<path class="path7" d="M649.874 119.15c-19.602 8.85-15.506 35.328 4.608 39.497 17.701 3.584 53.029-2.926 68.901 1.975 32.987 10.24-9.289 111.397 40.887 94.866 27.721-9.143 14.994-97.353 1.243-115.931-8.338-11.264-26.331-21.065-47.762-22.455-14.921-0.878-57.271-2.779-67.877 2.048z"></path>
	<path class="path8" d="M420.791 455.899h137.801c40.96 0 42.423-42.35 0-42.35h-137.801c-42.423 0-42.057 42.35 0 42.35z"></path>
	<path class="path9" d="M420.791 625.371h70.656c43.301 0 43.593-42.35 0-42.35-46.592 0-97.207-8.704-100.206 17.847-2.414 20.919 10.679 24.503 29.55 24.503z"></path>
	<path class="path10" d="M188.489 326.437h138.386l0.293 137.728h-138.313l-0.366-137.728zM184.613 465.335l144.018 1.682 0.731-144.165-143.579-0.439-1.17 142.921z"></path>
	<path class="path11" d="M227.767 576l44.617-0.146 13.531 0.731v57.051l-58.002 0.219-0.146-57.856zM185.49 676.279l142.775-0.073v-141.897l-13.531-0.731-128.951 0.073-0.293 142.629z"></path>
	<path class="path12" d="M208.091 556.105h97.499v97.499h-97.499v-97.499z"></path>
</symbol>
<symbol id="icon-FreeCourses" viewBox="0 0 864 1024">
	<title>FreeCourses</title>
	<path class="path1" d="M497.149 541.020c20.729-2.073 51.822 0 72.551 0 26.947 0 209.36 0 219.725 2.073v439.449c-10.364 4.146-60.113 2.073-72.551 2.073-31.093 0-205.215 0-219.725 0v-443.595zM74.282 543.093c4.146-2.073-2.073 0 6.219-2.073h138.883c37.312 0 116.081 0 147.174 0v443.595c-22.802 0-49.749 0-72.551 0-16.583 0-211.433 2.073-219.725-2.073v-439.449zM501.295 304.713h321.296v161.684h-321.296v-161.684zM41.116 304.713h321.296v161.684h-321.296v-161.684zM403.87 302.64h55.968v163.757h-55.968v-163.757zM271.206 114.008c22.802-4.146 45.603 2.073 64.259 8.291 72.551 31.093 103.644 103.644 43.53 116.081-55.968 10.364-130.591-37.312-138.883-82.915-6.219-24.874 10.364-37.312 31.093-41.457zM584.21 76.696c51.822-12.437 60.113 37.312 33.166 84.988-14.51 24.874-47.676 58.040-82.915 66.332-60.113 12.437-53.895-51.822-33.166-84.988 16.583-26.947 45.603-58.040 82.915-66.332zM405.942 1005.344v-464.324h51.822v462.251c20.729 24.874 16.583 20.729 33.166 20.729h302.64c14.51 0 14.51 2.073 20.729-4.146 16.583-18.656 14.51-8.291 14.51-39.385 0-74.623 0-147.174 0-219.725 0-20.729 0-203.142 0-219.725 18.656 0 16.583-2.073 24.874-10.364 12.437-12.437 10.364-6.219 10.364-29.020v-213.506c0-6.219-4.146-8.291-8.291-12.437-2.073-2.073-6.219-6.219-8.291-8.291-6.219-6.219-22.802-4.146-33.166-4.146-68.405 0-149.247 2.073-215.579 0l26.947-22.802c8.291-6.219 14.51-14.51 22.802-24.874 116.081-140.955 35.239-279.838-116.081-184.486-14.51 10.364-37.312 29.020-51.822 43.53-20.729 22.802-31.093 43.53-39.385 51.822-6.219-4.146-12.437-12.437-22.802-18.656-8.291-6.219-14.51-12.437-22.802-18.656-16.583-10.364-37.312-18.656-58.040-26.947-41.457-14.51-99.498-22.802-138.883 0-66.332 37.312-39.385 116.081 10.364 163.757 14.51 12.437 24.874 22.802 41.457 33.166l6.219 4.146c-47.676 2.073-95.352 0-143.028 0h-89.134c-6.219 0-8.291 4.146-10.364 6.219-12.437 12.437-14.51 10.364-14.51 22.802v213.506c0 18.656 0 14.51 10.364 24.874 8.291 8.291 6.219 10.364 22.802 10.364 2.073 20.729 2.073 420.794 2.073 439.449 0 31.093-2.073 20.729 14.51 39.385 6.219 6.219 8.291 4.146 22.802 4.146h300.567c24.874 0 14.51-6.219 33.166-18.656z"></path>
</symbol>
<symbol id="icon-SchoolEducation" viewBox="0 0 842 1024">
	<title>SchoolEducation</title>
	<path class="path1" d="M740.833 576v-448h-320l21.333 725.333c42.667 0 106.667-42.667 128-64 42.667-42.667 85.333-64 106.667-106.667 21.333-21.333 42.667-64 64-106.667z"></path>
	<path class="path2" d="M804.833 42.667c0 106.667 0 213.333 0 320 0 64 0 128 0 170.667 0 85.333 0 85.333-21.333 149.333-42.667 42.667-42.667 64-85.333 106.667 0 21.333-42.667 64-64 64-64 42.667-85.333 64-149.333 106.667-21.333 0-21.333 21.333-42.667 21.333 0 0-21.333 0-21.333 0-42.667-21.333-85.333-42.667-106.667-64-64-21.333-106.667-64-149.333-106.667 0 0-21.333-21.333-42.667-42.667s-85.333-128-85.333-149.333v-256c0-106.667 0-213.333 0-320h768zM15.5 0c-21.333 0-21.333 21.333-21.333 42.667v533.333c0 42.667 0 42.667 21.333 85.333s64 106.667 85.333 149.333c21.333 0 21.333 0 21.333 21.333l42.667 42.667c64 42.667 170.667 128 256 149.333 0 0 21.333 0 42.667 0 21.333-21.333 42.667-42.667 64-42.667 64-42.667 128-85.333 170.667-128 0-21.333 21.333-21.333 21.333-42.667 21.333 0 21.333-21.333 42.667-21.333 0-21.333 0-21.333 21.333-42.667 0-21.333 42.667-85.333 64-106.667 0-21.333 0-42.667 0-64v-533.333c0-42.667 0-42.667-128-42.667-42.667 0-704 0-704 0z"></path>
</symbol>
</defs>
</svg>
